HIERARCHY
ROOT joint_0
{
	OFFSET 0.000000 0.000000 0.000000
	CHANNELS 6 Xposition Yposition Zposition Zrotation Yrotation Xrotation 
	JOINT joint_1
	{
		OFFSET 11.612000 -0.419000 106.198000
		CHANNELS 3 Zrotation Yrotation Xrotation
		JOINT joint_2
		{
			OFFSET -1.708000 -1.022000 97.564090
			CHANNELS 3 Zrotation Yrotation Xrotation
			JOINT joint_3
			{
				OFFSET -4.121000 -1.538000 97.375000
				CHANNELS 3 Zrotation Yrotation Xrotation
				JOINT joint_4
				{
					OFFSET 5.442000 -2.123000 132.795900
					CHANNELS 3 Zrotation Yrotation Xrotation
					JOINT joint_5
					{
						OFFSET 21.935000 0.195000 82.975100
						CHANNELS 3 Zrotation Yrotation Xrotation
						End Site
						{
							OFFSET 0.000000 0.000000 0.000000
						}
					}
				}
				JOINT joint_6
				{
					OFFSET 4.262000 -30.048000 73.899900
					CHANNELS 3 Zrotation Yrotation Xrotation
					JOINT joint_7
					{
						OFFSET 9.731000 -136.810010 -21.963010
						CHANNELS 3 Zrotation Yrotation Xrotation
						JOINT joint_8
						{
							OFFSET 33.360000 -35.709000 -267.597900
							CHANNELS 3 Zrotation Yrotation Xrotation
							JOINT joint_9
							{
								OFFSET 36.156000 -29.759000 -240.558040
								CHANNELS 3 Zrotation Yrotation Xrotation
								End Site
								{
									OFFSET 0.000000 0.000000 0.000000
								}
							}
						}
					}
				}
				JOINT joint_10
				{
					OFFSET 2.027000 27.734000 74.914920
					CHANNELS 3 Zrotation Yrotation Xrotation
					JOINT joint_11
					{
						OFFSET -5.183000 136.784000 -23.604980
						CHANNELS 3 Zrotation Yrotation Xrotation
						JOINT joint_12
						{
							OFFSET 29.806000 37.229000 -267.809940
							CHANNELS 3 Zrotation Yrotation Xrotation
							JOINT joint_13
							{
								OFFSET 36.890000 46.524990 -237.772030
								CHANNELS 3 Zrotation Yrotation Xrotation
								End Site
								{
									OFFSET 0.000000 0.000000 0.000000
								}
							}
						}
					}
				}
			}
		}
	}
	JOINT joint_14
	{
		OFFSET -7.290000 -102.873990 -124.314940
		CHANNELS 3 Zrotation Yrotation Xrotation
		JOINT joint_15
		{
			OFFSET -15.466000 -19.909010 -438.533020
			CHANNELS 3 Zrotation Yrotation Xrotation
			JOINT joint_16
			{
				OFFSET -26.899000 -18.922000 -464.797000
				CHANNELS 3 Zrotation Yrotation Xrotation
				JOINT joint_17
				{
					OFFSET 179.329000 -12.011000 -84.174000
					CHANNELS 3 Zrotation Yrotation Xrotation
					End Site
					{
						OFFSET 0.000000 0.000000 0.000000
					}
				}
			}
		}
	}
	JOINT joint_18
	{
		OFFSET -6.225000 101.546000 -125.479980
		CHANNELS 3 Zrotation Yrotation Xrotation
		JOINT joint_19
		{
			OFFSET -13.973000 7.996000 -438.963010
			CHANNELS 3 Zrotation Yrotation Xrotation
			JOINT joint_20
			{
				OFFSET -44.294000 5.716000 -463.813970
				CHANNELS 3 Zrotation Yrotation Xrotation
				JOINT joint_21
				{
					OFFSET 178.505000 -4.689000 -85.139000
					CHANNELS 3 Zrotation Yrotation Xrotation
					End Site
					{
						OFFSET 0.000000 0.000000 0.000000
					}
				}
			}
		}
	}
}
MOTION
Frames: 10
Frame Time: 0.016667
31.284000 -28.502000 1139.610960 2.892670 2.011836 0.769533 -0.627554 3.516400 -1.360882 -0.683273 -0.707952 0.284981 -0.687930 0.698147 -0.200153 -0.046296 1.978813 0.144898 0.000000 0.000000 0.000000 -0.161548 -0.686582 0.573906 -0.000111 -0.803604 -0.715238 0.222961 -1.908569 -0.074862 0.000000 0.000000 0.000000 -0.924133 -1.081928 0.037838 -0.518489 -1.039501 -0.656111 -1.051684 -3.517868 -2.383856 0.000000 0.000000 0.000000 -0.455357 -5.171144 -3.617103 -1.561529 15.885886 3.435759 -0.436451 -3.429241 -0.430235 0.000000 0.000000 0.000000 -0.204807 -1.229535 -1.439487 -0.055270 7.211210 -0.595884 -0.153177 -0.837545 -0.094161 0.000000 0.000000 0.000000 
34.064000 -28.091000 1140.032960 3.011720 1.856146 0.880253 -0.628039 3.800781 -1.599174 -0.725735 -0.750304 0.324852 -0.736598 0.737207 -0.222372 -0.079780 2.274554 0.264438 0.000000 0.000000 0.000000 -0.203983 -0.773030 0.557971 0.025159 -0.894692 -0.642370 0.384281 -2.649032 0.403138 0.000000 0.000000 0.000000 -0.927431 -1.105689 0.139041 -0.512473 -1.058355 -0.469524 -1.095198 -3.622209 -2.537685 0.000000 0.000000 0.000000 -0.424715 -6.923054 -4.181857 -1.725774 19.573020 4.033583 -0.363768 -3.254382 -0.384067 0.000000 0.000000 0.000000 -0.259034 -1.184500 -1.495348 -0.089712 7.679228 -0.732842 -0.186747 -0.733463 -0.106946 0.000000 0.000000 0.000000 
36.789000 -27.858000 1140.218020 3.071472 1.693123 0.959038 -0.603032 4.091307 -1.790603 -0.769465 -0.780547 0.350505 -0.788860 0.780691 -0.256402 -0.107350 2.554558 0.362545 0.000000 0.000000 0.000000 -0.238846 -0.880406 0.559318 0.061122 -1.001580 -0.471956 0.514317 -3.323061 0.731379 0.000000 0.000000 0.000000 -0.953514 -1.145706 0.228107 -0.493849 -1.085483 -0.246436 -1.103593 -3.606685 -2.615253 0.000000 0.000000 0.000000 -0.450255 -8.966116 -4.642684 -1.906018 23.674903 4.462322 -0.325757 -2.481151 -0.311871 0.000000 0.000000 0.000000 -0.285060 -1.112742 -1.521369 -0.094114 8.141011 -0.859203 -0.184833 -0.740484 -0.106023 0.000000 0.000000 0.000000 
39.500000 -27.828000 1140.225950 3.125065 1.507810 1.061838 -0.566032 4.414786 -2.036964 -0.827960 -0.819873 0.406869 -0.860215 0.824364 -0.296476 -0.133609 2.832070 0.456320 0.000000 0.000000 0.000000 -0.270923 -0.996763 0.579090 0.103734 -1.114933 -0.238179 0.624387 -3.949896 0.967352 0.000000 0.000000 0.000000 -0.993316 -1.195669 0.312913 -0.464388 -1.117182 0.000490 -1.079487 -3.483974 -2.616126 0.000000 0.000000 0.000000 -0.564347 -11.165117 -5.069444 -2.098847 27.927663 4.733090 -0.347346 -1.207121 -0.229607 0.000000 0.000000 0.000000 -0.303857 -1.003442 -1.575176 -0.092663 8.589471 -0.969723 -0.168950 -0.793107 -0.099805 0.000000 0.000000 0.000000 
42.457000 -28.124000 1140.170040 3.294551 1.324168 1.207014 -0.564008 4.711715 -2.337783 -0.924051 -0.871905 0.486108 -0.970962 0.859581 -0.328001 -0.160915 3.118271 0.554107 0.000000 0.000000 0.000000 -0.321584 -1.104062 0.645993 0.143956 -1.226752 -0.026913 0.714339 -4.449551 1.171585 0.000000 0.000000 0.000000 -1.020166 -1.242107 0.377168 -0.422738 -1.144533 0.249383 -1.013042 -3.231413 -2.501354 0.000000 0.000000 0.000000 -0.819265 -13.102980 -5.458982 -2.340822 31.470111 4.868814 -0.504013 -0.212347 -0.222768 0.000000 0.000000 0.000000 -0.347047 -0.852684 -1.671957 -0.124093 8.954623 -1.040943 -0.177971 -0.802948 -0.104037 0.000000 0.000000 0.000000 
45.698000 -28.780000 1139.975950 3.617681 1.185291 1.367218 -0.620179 4.882931 -2.624378 -1.066454 -0.903206 0.540027 -1.126226 0.880685 -0.345195 -0.193539 3.431793 0.671736 0.000000 0.000000 0.000000 -0.407020 -1.207268 0.788484 0.180251 -1.349030 0.123347 0.782388 -4.777809 1.363596 0.000000 0.000000 0.000000 -1.032628 -1.280939 0.413760 -0.365153 -1.162693 0.502386 -0.894991 -2.821054 -2.246822 0.000000 0.000000 0.000000 -1.252106 -14.785450 -5.781154 -2.701352 34.370110 4.917130 -0.869859 -0.147005 -0.366494 0.000000 0.000000 0.000000 -0.422719 -0.705658 -1.776436 -0.194491 9.230949 -1.072787 -0.219498 -0.797012 -0.122874 0.000000 0.000000 0.000000 
49.186000 -29.760000 1139.717040 4.008422 1.081213 1.521414 -0.706217 4.958121 -2.875655 -1.222577 -0.912855 0.570227 -1.292778 0.894069 -0.355504 -0.227951 3.754609 0.796128 0.000000 0.000000 0.000000 -0.511854 -1.300572 0.977244 0.214946 -1.468865 0.253549 0.830997 -4.978438 1.524293 0.000000 0.000000 0.000000 -1.035027 -1.317398 0.424815 -0.293757 -1.176458 0.763693 -0.733741 -2.281718 -1.874246 0.000000 0.000000 0.000000 -1.764614 -16.295380 -6.021494 -3.104294 36.713126 4.878051 -1.358762 -0.671120 -0.600490 0.000000 0.000000 0.000000 -0.507229 -0.550604 -1.863296 -0.280156 9.429770 -1.080441 -0.274334 -0.780342 -0.147486 0.000000 0.000000 0.000000 
53.069000 -31.085000 1139.725950 4.361534 0.988053 1.644990 -0.781899 5.012079 -3.067596 -1.332731 -0.929488 0.600294 -1.409559 0.908693 -0.364210 -0.256184 4.045227 0.896155 0.000000 0.000000 0.000000 -0.618381 -1.347806 1.150155 0.244434 -1.539838 0.398495 0.865992 -5.108066 1.651809 0.000000 0.000000 0.000000 -1.017234 -1.351500 0.406962 -0.215544 -1.189535 1.012759 -0.545700 -1.679028 -1.409999 0.000000 0.000000 0.000000 -2.159974 -17.407360 -6.168241 -3.401010 37.809441 4.781492 -1.750102 -1.351440 -0.807985 0.000000 0.000000 0.000000 -0.571138 -0.330098 -1.897519 -0.359194 9.513354 -1.079310 -0.332298 -0.665870 -0.170851 0.000000 0.000000 0.000000 
57.423000 -32.781000 1140.180050 4.633687 0.901560 1.711364 -0.835415 5.055381 -3.169811 -1.370419 -0.962626 0.633575 -1.448041 0.929128 -0.372120 -0.275785 4.293803 0.961187 0.000000 0.000000 0.000000 -0.727831 -1.335681 1.305079 0.265463 -1.549063 0.545376 0.889141 -5.164640 1.761312 0.000000 0.000000 0.000000 -0.966752 -1.395818 0.331209 -0.127462 -1.214937 1.254676 -0.317081 -0.986005 -0.802022 0.000000 0.000000 0.000000 -2.364056 -17.976419 -6.198738 -3.563031 37.212944 4.650195 -1.966260 -2.002113 -0.949734 0.000000 0.000000 0.000000 -0.598856 -0.011390 -1.844371 -0.418188 9.439376 -1.077924 -0.387840 -0.407938 -0.189315 0.000000 0.000000 0.000000 
62.172000 -34.822000 1140.901000 4.858513 0.835058 1.739827 -0.876858 5.059955 -3.198444 -1.358023 -0.995067 0.658376 -1.431202 0.949774 -0.377973 -0.290680 4.510761 1.005544 0.000000 0.000000 0.000000 -0.837813 -1.278208 1.443866 0.281230 -1.509939 0.706586 0.898525 -5.150732 1.836696 0.000000 0.000000 0.000000 -0.897019 -1.439010 0.218701 -0.030564 -1.239907 1.493461 -0.061037 -0.239121 -0.091622 0.000000 0.000000 0.000000 -2.440707 -18.141042 -6.137119 -3.643964 35.339360 4.488471 -2.068055 -2.662096 -1.052093 0.000000 0.000000 0.000000 -0.607777 0.364440 -1.727701 -0.463706 9.248461 -1.073791 -0.442045 -0.051218 -0.204651 0.000000 0.000000 0.000000 
